<?xml version="1.0" encoding="UTF-8"?>
<svg width="20px" height="20px" viewBox="0 0 20 20" version="1.1" xmlns="http://www.w3.org/2000/svg" xmlns:xlink="http://www.w3.org/1999/xlink">
    <title>交集</title>
    <g id="0915" stroke="none" stroke-width="1" fill="none" fill-rule="evenodd">
        <g id="发起任务-新用户-高级配置" transform="translate(-104, -789)" fill="#000000">
            <g id="组1" transform="translate(24, 108)">
                <g id="编组-12" transform="translate(24, 568)">
                    <g id="编组-27" transform="translate(0, 78)">
                        <g id="交集" transform="translate(56, 35)">
                            <rect id="矩形" fill-rule="nonzero" opacity="0" x="0" y="0" width="20" height="20"></rect>
                            <path d="M16.3333398,3 C17.2538108,3 18,3.74618917 18,4.66666016 L18,12.1666602 C18,12.6086893 17.8244134,13.0326158 17.5118534,13.3451795 C17.1992935,13.6577431 16.775369,13.8333398 16.3333398,13.8333398 L13.8333398,13.8333398 L13.8333398,16.3333398 C13.8333398,16.775369 13.6577431,17.1992935 13.3451795,17.5118534 C13.0326158,17.8244134 12.6086893,18 12.1666602,18 L4.66666016,18 C3.74618917,18 3,17.2538108 3,16.3333398 L3,8.83333984 C3,8.3913107 3.17558658,7.96738415 3.48814655,7.65482052 C3.80070652,7.34225689 4.22463102,7.16666016 4.66666016,7.16666016 L7.16666016,7.16666016 L7.16666016,4.66666016 C7.16666016,4.22463102 7.34225689,3.80070652 7.65482052,3.48814655 C7.96738415,3.17558658 8.3913107,3 8.83333984,3 L16.3333398,3 Z M12.1666601,7.16666016 L7.16666007,7.16666016 L7.16666007,12.1666602 C7.16638149,13.0388533 7.83860236,13.7637557 8.70833984,13.8291602 L8.83333984,13.8333398 L13.8333399,13.8333398 L13.8333399,8.83333984 C13.8336185,7.96114665 13.1613976,7.23624433 12.2916602,7.17083984 L12.1666601,7.16666016 L12.1666601,7.16666016 Z" id="形状" fill-rule="nonzero" opacity="0.25"></path>
                            <rect id="矩形" opacity="0.65" x="8.3" y="8.3" width="4.4" height="4.4" rx="1"></rect>
                        </g>
                    </g>
                </g>
            </g>
        </g>
    </g>
</svg>